<svg xmlns="http://www.w3.org/2000/svg" viewBox="0 0 982.26 982.26"><defs><style>.cls-1{fill:#3c3c3c;}.cls-2{fill:#1e1e1e;}</style></defs><title>olonote</title><g id="Background"><circle class="cls-1" cx="491.13" cy="491.13" r="491.13"/></g><g id="Outline"><path class="cls-2" d="M984.82,414.17a476.57,476.57,0,0,0-81.61-197C848.7,140.73,775.42,81.64,691.3,46.25s-177.45-46.43-270-32a478.16,478.16,0,0,0-207.22,85.84C139.14,154.79,81.28,227.78,46.74,311.18S1.5,487.11,15.81,578.74A478.12,478.12,0,0,0,101.65,786C156.32,860.86,229.3,918.71,312.7,953.26a492.11,492.11,0,0,0,188.39,37.1,513.24,513.24,0,0,0,79.16-6.17,478.21,478.21,0,0,0,207.21-85.82C863.15,843.13,921.35,769.3,955.8,684.84S1000.29,506.74,984.82,414.17ZM498.17,614.34a115.28,115.28,0,1,1,84-33.74A114.85,114.85,0,0,1,498.17,614.34Zm2.59-270.43a154.19,154.19,0,0,0-88,27.42A156.51,156.51,0,0,0,380,401.62l1.38-167.46a3,3,0,0,1,3-3c44.54.69,193.4,3,238.73,3.78a1.28,1.28,0,0,1,1.25,1.29L623,403.42a156.25,156.25,0,0,0-33.36-31.53A154.18,154.18,0,0,0,500.76,343.91ZM624.45,191.57c-.05.94,0,1.9,0,2.86s0,1.84,0,2.91l-242.74-2a.16.16,0,0,1-.15-.16c0-2.18,0-4.23,0-5.75,0-.81,0-1.61,0-2.41h0l0-5.84,242.88,4.45-.05,5.94Zm-237.2,639,24.29-24.3a2.46,2.46,0,0,1,2.22-.67,3.15,3.15,0,0,1,1.5.93l14,14a36.85,36.85,0,0,0,24.84,11A35.92,35.92,0,0,0,481,821l16.46-16.46a1.3,1.3,0,0,1,1.81,0l20.57,20.58a34.16,34.16,0,0,0,48.62.27l18.82-18.82,23.93,23.93a1.42,1.42,0,0,1,0,2l-49,49-126.59-.93-48.28-48.28A1.23,1.23,0,0,1,387.25,830.59Zm174.67-50.48-17.68,17.68-19.31-19.31a37.69,37.69,0,0,0-53.24,0l-16.37,16.38-14-14a39.77,39.77,0,0,0-24.81-11.7,39,39,0,0,0-30.8,11.31l-8.51,8.5,1.42-193.88a156.45,156.45,0,0,0,33.26,31.47,155,155,0,0,0,176.84.69,156.09,156.09,0,0,0,32.78-30.31l-1.39,190.74-7.52-7.53a35.79,35.79,0,0,0-50.63,0ZM540.24,62.64,564.06,73.7c31.73,14.45,47.75,47,55.61,71.69a2.55,2.55,0,0,1-.41,2.39A2.69,2.69,0,0,1,617,148.9l-229.45-4.21c6.86-21.84,17.53-40.74,30.18-53.38a100.55,100.55,0,0,1,43.6-25.66l25.57-7.25A77,77,0,0,1,540.24,62.64ZM360.45,114.11l-7.29,19.46a127.4,127.4,0,0,0-8.14,44l-4.71,647.15A29.84,29.84,0,0,0,349,845.81L450.6,947.42C223.4,922.48,49.79,731.47,49.79,499.24c0-211.78,147.59-391.95,347.55-439A137.07,137.07,0,0,0,360.45,114.11ZM496.92,942l-25.41-25.41,54.65.91L501.66,942a3.36,3.36,0,0,1-4.74,0Zm150.41-93.92a30.77,30.77,0,0,0,9-21.64l4.83-662.06a37.24,37.24,0,0,0-.87-8.29l-4.47-20.35a138.11,138.11,0,0,0-43.39-73.59C810,112,951.74,289.34,951.74,499.24c0,234-175.08,425.2-404.13,448.55Z" transform="translate(-9.64 -8.11)"/></g></svg>