<svg xmlns="http://www.w3.org/2000/svg" viewBox="0 0 4932.7 982.26"><defs><style>.a,.b{fill:#3c3c3c;}.b{font-size:700px;font-family:Calibri-Light, Calibri;font-weight:300;}.c{letter-spacing:-0.03em;}</style></defs><title>olonote-text</title><path class="a" d="M1037.43,420.68a476.25,476.25,0,0,0-81.61-197C901.31,147.23,828,88.14,743.91,52.75s-177.45-46.43-270-32a478.32,478.32,0,0,0-207.23,85.84C191.75,161.29,133.9,234.28,99.35,317.69S54.11,493.61,68.42,585.24a478.4,478.4,0,0,0,85.84,207.22c54.67,74.9,127.65,132.76,211.06,167.3A491.91,491.91,0,0,0,553.7,996.87a514.49,514.49,0,0,0,79.16-6.17,478.27,478.27,0,0,0,207.22-85.83C915.76,849.64,974,775.8,1008.41,691.34S1052.91,513.25,1037.43,420.68ZM550.79,620.84a115.27,115.27,0,1,1,84-33.73A114.85,114.85,0,0,1,550.79,620.84Zm2.59-270.43a154.17,154.17,0,0,0-88,27.42,156.51,156.51,0,0,0-32.73,30.29L434,240.66a3,3,0,0,1,.91-2.13,2.9,2.9,0,0,1,2.14-.85c44.54.7,193.39,3,238.73,3.79a1.28,1.28,0,0,1,1.25,1.28l-1.48,167.17a156.41,156.41,0,0,0-33.35-31.52A154.14,154.14,0,0,0,553.38,350.41ZM677.06,198.08c0,.94,0,1.89,0,2.86s0,1.83,0,2.9l-242.75-2a.15.15,0,0,1-.14-.16c0-2.18,0-4.23,0-5.75,0-.81,0-1.61,0-2.4h0l0-5.85,242.88,4.45,0,6Zm-237.2,639,24.3-24.29a2.42,2.42,0,0,1,2.22-.68,3.14,3.14,0,0,1,1.49.93l14,14a36.83,36.83,0,0,0,24.85,11,35.94,35.94,0,0,0,26.83-10.6L550,811a1.28,1.28,0,0,1,1.81,0l20.57,20.57a34.36,34.36,0,0,0,18.59,9.8,34,34,0,0,0,30-9.52L639.85,813,663.78,837a1.42,1.42,0,0,1,0,2l-49,49-126.59-.92-48.28-48.28A1.24,1.24,0,0,1,439.86,837.09Zm174.68-50.48L596.85,804.3,577.54,785a37.65,37.65,0,0,0-53.23,0l-16.38,16.38-14-14a39.73,39.73,0,0,0-24.81-11.71,39.11,39.11,0,0,0-30.8,11.31l-8.5,8.5,1.41-193.88A156.5,156.5,0,0,0,464.46,633a155,155,0,0,0,176.83.7,156.66,156.66,0,0,0,32.79-30.31l-1.39,190.73-7.53-7.53a35.8,35.8,0,0,0-50.62,0ZM592.85,69.14,616.67,80.2c31.73,14.45,47.76,47,55.62,71.69a2.54,2.54,0,0,1-.42,2.39,2.66,2.66,0,0,1-2.27,1.12l-229.45-4.2c6.86-21.84,17.54-40.74,30.18-53.39a100.71,100.71,0,0,1,43.6-25.66l25.57-7.24A76.93,76.93,0,0,1,592.85,69.14ZM413.07,120.62l-7.3,19.45a127.62,127.62,0,0,0-8.13,44l-4.71,647.15a29.77,29.77,0,0,0,8.66,21.14L503.21,953.93C276,929,102.41,738,102.41,505.74,102.41,294,250,113.79,450,66.76A137,137,0,0,0,413.07,120.62ZM549.53,948.5l-25.41-25.4,54.66.9-24.51,24.5a3.33,3.33,0,0,1-4.74,0Zm150.41-93.92A30.72,30.72,0,0,0,709,833l4.84-662.07a37.75,37.75,0,0,0-.87-8.28l-4.47-20.36a138.16,138.16,0,0,0-43.4-73.58c197.49,49.8,339.26,227.18,339.26,437.08,0,234-175.07,425.21-404.12,448.55Z" transform="translate(-62.25 -14.61)"/><text class="b" transform="translate(1207.8 687.55) scale(1.38 1)">olO N<tspan class="c" x="1582.52" y="0">O</tspan><tspan x="2020.02" y="0">TE</tspan></text></svg>